<svg xmlns="http://www.w3.org/2000/svg" width="480" height="107" fill="none"><path fill="#202020" d="M100 65.6c-1.7 0-2.6-.9-2.6-2.5v-16c0-1.5 1-2.4 2.5-2.4h47.4c1.6 0 2.5.9 2.5 2.5v45.7c0 1.3-.5 2.2-1.7 3a86.1 86.1 0 0 1-43 10.6 52.3 52.3 0 0 1-53.7-53.7c0-29.2 23-52.8 53.7-52.8 18.9 0 33.2 7.5 42.2 17.8 1 1.4.8 2.4-.3 3.6l-14.3 12.8c-1.2 1.2-2.5 1-3.6-.3a28 28 0 0 0-24-11 29.3 29.3 0 0 0-29.5 30c0 17.9 12.4 30.7 29.5 30.7a53 53 0 0 0 21-3.7V65.6H100ZM2.5 104.2c-1.6 0-2.5-.9-2.5-2.5V5c0-1.7.9-2.5 2.5-2.5h18.6c1.6 0 2.5.8 2.5 2.5v96.7c0 1.6-.9 2.5-2.5 2.5H2.5ZM479.4 101.1c1.2 1.6.5 3.1-1.6 3.1h-23.6c-1.3 0-2.2-.6-3-1.6L427.9 67h-8.2v34.7c0 1.6-1 2.5-2.5 2.5h-18.6c-1.6 0-2.5-.9-2.5-2.5V5c0-1.7.9-2.5 2.5-2.5h39.8c22.3 0 36.4 11.9 36.4 32.1a30 30 0 0 1-20.8 30l25.5 36.5Zm-42.3-76.7h-17.5v22.9H437c8.6 0 13.4-4.9 13.4-12 0-7-4.8-10.9-13.4-10.9Z"/><path fill="#202020" fill-rule="evenodd" d="M176.3 52.6c0 31 24.1 53.9 54.4 53.9 17 0 32.3-7.4 42.2-19.4 10 12 25.2 19.4 42.4 19.4 30 0 54.4-22.9 54.4-53.9 0-29-24.4-52.6-54.4-52.6a55 55 0 0 0-42.4 19.5A55 55 0 0 0 230.7 0a53.5 53.5 0 0 0-54.4 52.6ZM285 54.2a57.7 57.7 0 0 0 0-3A29.5 29.5 0 0 1 315.3 23a29.4 29.4 0 0 1 30.2 29.7c0 18.2-12.5 31-30.2 31-17 0-29.5-12-30.2-29.4Zm-24.2-3a29.4 29.4 0 0 0-30.2-28.3 29.5 29.5 0 0 0-30.3 29.7c0 18.2 12.7 31 30.3 31a29.3 29.3 0 0 0 30.2-31v-1.4Zm-30.5 19.9c10.6 0 18.1-7.7 18.1-18.6 0-9.8-7.5-17.8-18.1-17.8-10.5 0-18.2 8-18.2 17.8 0 11 7.7 18.6 18.2 18.6ZM333 52.5c0 11-7.6 18.6-18.2 18.6-10.5 0-18.1-7.7-18.1-18.6 0-9.8 7.6-17.8 18.1-17.8 10.6 0 18.2 8 18.2 17.8Z" clip-rule="evenodd"/></svg>